<svg width="198" height="182" viewBox="0 0 198 182" fill="none" xmlns="http://www.w3.org/2000/svg">
<g opacity="0.25">
<path d="M194.438 109.25C196.268 109.25 197.75 110.73 197.75 112.556C197.75 145.8 170.754 172.75 137.452 172.75L128.548 172.75C95.2459 172.75 68.25 145.8 68.25 112.556C68.25 110.73 69.7323 109.25 71.5616 109.25C73.391 109.25 74.8733 110.73 74.8733 112.556C74.8733 142.149 98.9047 166.139 128.548 166.139L137.452 166.139C167.095 166.139 191.127 142.149 191.127 112.556C191.127 110.73 192.609 109.25 194.438 109.25Z" fill="#698AFF" fill-opacity="0.1" stroke="#698AFF" stroke-width="0.5" stroke-linecap="round"/>
<path d="M133 157.75C106.076 157.75 84.25 135.924 84.25 109L84.25 73C84.25 46.0761 106.076 24.25 133 24.25C159.924 24.25 181.75 46.0761 181.75 73L181.75 109C181.75 135.924 159.924 157.75 133 157.75Z" fill="#698AFF" fill-opacity="0.1" stroke="#698AFF" stroke-width="0.5"/>
<path d="M133 181.75C128.869 181.75 125.136 181.415 122.442 180.876C121.093 180.606 120.018 180.288 119.286 179.942C118.919 179.768 118.652 179.594 118.479 179.426C118.308 179.258 118.25 179.116 118.25 179C118.25 178.884 118.308 178.742 118.479 178.574C118.652 178.406 118.919 178.232 119.286 178.058C120.018 177.712 121.093 177.394 122.442 177.124C125.136 176.585 128.869 176.25 133 176.25C137.131 176.25 140.864 176.585 143.558 177.124C144.907 177.394 145.982 177.712 146.714 178.058C147.081 178.232 147.348 178.406 147.521 178.574C147.692 178.742 147.75 178.884 147.75 179C147.75 179.116 147.692 179.258 147.521 179.426C147.348 179.594 147.081 179.768 146.714 179.942C145.982 180.288 144.907 180.606 143.558 180.876C140.864 181.415 137.131 181.75 133 181.75Z" fill="#698AFF" fill-opacity="0.1" stroke="#698AFF" stroke-width="0.5"/>
</g>
<g opacity="0.25">
<path d="M126.438 85.25C128.268 85.25 129.75 86.7304 129.75 88.5556C129.75 121.8 102.754 148.75 69.452 148.75L60.5479 148.75C27.2459 148.75 0.249991 121.8 0.249992 88.5555C0.249992 86.7303 1.73226 85.25 3.56164 85.25C5.39101 85.25 6.87328 86.7303 6.87328 88.5555C6.87327 118.149 30.9047 142.139 60.5479 142.139L69.452 142.139C99.0953 142.139 123.127 118.149 123.127 88.5556C123.127 86.7303 124.609 85.25 126.438 85.25Z" fill="#698AFF" fill-opacity="0.1" stroke="#698AFF" stroke-width="0.5" stroke-linecap="round"/>
<path d="M65 133.75C38.0761 133.75 16.25 111.924 16.25 85L16.25 49C16.25 22.0761 38.0761 0.249999 65 0.249998C91.9239 0.249997 113.75 22.0761 113.75 49L113.75 85C113.75 111.924 91.9239 133.75 65 133.75Z" fill="#698AFF" fill-opacity="0.1" stroke="#698AFF" stroke-width="0.5"/>
<path d="M65 157.75C60.8692 157.75 57.1364 157.415 54.4424 156.876C53.0934 156.606 52.0179 156.288 51.2856 155.942C50.9189 155.768 50.6516 155.594 50.4795 155.426C50.3078 155.258 50.25 155.116 50.25 155C50.25 154.884 50.3078 154.742 50.4795 154.574C50.6516 154.406 50.9189 154.232 51.2856 154.058C52.0179 153.712 53.0934 153.394 54.4424 153.124C57.1364 152.585 60.8692 152.25 65 152.25C69.1308 152.25 72.8636 152.585 75.5576 153.124C76.9066 153.394 77.9821 153.712 78.7144 154.058C79.0811 154.232 79.3484 154.406 79.5205 154.574C79.6922 154.742 79.75 154.884 79.75 155C79.75 155.116 79.6922 155.258 79.5205 155.426C79.3484 155.594 79.0811 155.768 78.7144 155.942C77.9821 156.288 76.9066 156.606 75.5576 156.876C72.8636 157.415 69.1308 157.75 65 157.75Z" fill="#698AFF" fill-opacity="0.1" stroke="#698AFF" stroke-width="0.5"/>
</g>
<path fill-rule="evenodd" clip-rule="evenodd" d="M160.438 96C162.405 96 164 97.5919 164 99.5556C164 132.938 136.892 160 103.452 160L94.5479 160C61.1082 160 34 132.938 34 99.5555C34 97.5919 35.5946 96 37.5616 96C39.5287 96 41.1233 97.5919 41.1233 99.5555C41.1233 129.011 65.0423 152.889 94.5479 152.889L103.452 152.889C132.958 152.889 156.877 129.011 156.877 99.5556C156.877 97.5919 158.471 96 160.438 96Z" fill="#8B9DDD"/>
<rect x="50" y="145" width="134" height="98" rx="49" transform="rotate(-90 50 145)" fill="#698AFF"/>
<ellipse cx="99" cy="166" rx="3" ry="15" transform="rotate(90 99 166)" fill="#698AFF"/>
</svg>
