<svg width="200" height="200" viewBox="0 0 200 200" fill="none" xmlns="http://www.w3.org/2000/svg">
<rect width="200" height="200" fill="#353232"/>
<g opacity="0.25">
<path d="M195.438 118.25C197.268 118.25 198.75 119.73 198.75 121.556C198.75 154.8 171.754 181.75 138.452 181.75L129.548 181.75C96.2459 181.75 69.25 154.8 69.25 121.556C69.25 119.73 70.7323 118.25 72.5616 118.25C74.391 118.25 75.8733 119.73 75.8733 121.556C75.8733 151.149 99.9046 175.139 129.548 175.139L138.452 175.139C168.095 175.139 192.127 151.149 192.127 121.556C192.127 119.73 193.609 118.25 195.438 118.25Z" fill="#698AFF" fill-opacity="0.1" stroke="#698AFF" stroke-width="0.5" stroke-linecap="round"/>
<path d="M85.25 118L85.25 82C85.25 55.0761 107.076 33.25 134 33.25C160.924 33.25 182.75 55.0761 182.75 82L182.75 118C182.75 144.924 160.924 166.75 134 166.75C107.076 166.75 85.25 144.924 85.25 118Z" fill="#698AFF" fill-opacity="0.1" stroke="#698AFF" stroke-width="0.5"/>
<path d="M134 190.75C129.869 190.75 126.136 190.415 123.442 189.876C122.093 189.606 121.018 189.288 120.286 188.942C119.919 188.768 119.652 188.594 119.479 188.426C119.308 188.258 119.25 188.116 119.25 188C119.25 187.884 119.308 187.742 119.479 187.574C119.652 187.406 119.919 187.232 120.286 187.058C121.018 186.712 122.093 186.394 123.442 186.124C126.136 185.585 129.869 185.25 134 185.25C138.131 185.25 141.864 185.585 144.558 186.124C145.907 186.394 146.982 186.712 147.714 187.058C148.081 187.232 148.348 187.406 148.521 187.574C148.692 187.742 148.75 187.884 148.75 188C148.75 188.116 148.692 188.258 148.521 188.426C148.348 188.594 148.081 188.768 147.714 188.942C146.982 189.288 145.907 189.606 144.558 189.876C141.864 190.415 138.131 190.75 134 190.75Z" fill="#698AFF" fill-opacity="0.1" stroke="#698AFF" stroke-width="0.5"/>
</g>
<g opacity="0.25">
<path d="M127.438 94.25C129.268 94.25 130.75 95.7304 130.75 97.5556C130.75 130.8 103.754 157.75 70.452 157.75L61.5479 157.75C28.2459 157.75 1.24999 130.8 1.24999 97.5555C1.24999 95.7303 2.73226 94.25 4.56164 94.25C6.39101 94.25 7.87328 95.7303 7.87328 97.5555C7.87327 127.149 31.9046 151.139 61.5479 151.139L70.452 151.139C100.095 151.139 124.127 127.149 124.127 97.5556C124.127 95.7303 125.609 94.25 127.438 94.25Z" fill="#698AFF" fill-opacity="0.1" stroke="#698AFF" stroke-width="0.5" stroke-linecap="round"/>
<path d="M17.25 94L17.25 58C17.25 31.0761 39.0761 9.25 66 9.25C92.9239 9.25 114.75 31.0761 114.75 58L114.75 94C114.75 120.924 92.9239 142.75 66 142.75C39.0761 142.75 17.25 120.924 17.25 94Z" fill="#698AFF" fill-opacity="0.1" stroke="#698AFF" stroke-width="0.5"/>
<path d="M66 166.75C61.8692 166.75 58.1364 166.415 55.4424 165.876C54.0934 165.606 53.0179 165.288 52.2856 164.942C51.9189 164.768 51.6516 164.594 51.4795 164.426C51.3078 164.258 51.25 164.116 51.25 164C51.25 163.884 51.3078 163.742 51.4795 163.574C51.6516 163.406 51.9189 163.232 52.2856 163.058C53.0179 162.712 54.0934 162.394 55.4424 162.124C58.1364 161.585 61.8692 161.25 66 161.25C70.1308 161.25 73.8636 161.585 76.5576 162.124C77.9066 162.394 78.9821 162.712 79.7144 163.058C80.0811 163.232 80.3484 163.406 80.5205 163.574C80.6922 163.742 80.75 163.884 80.75 164C80.75 164.116 80.6922 164.258 80.5205 164.426C80.3484 164.594 80.0811 164.768 79.7144 164.942C78.9821 165.288 77.9066 165.606 76.5576 165.876C73.8636 166.415 70.1308 166.75 66 166.75Z" fill="#698AFF" fill-opacity="0.1" stroke="#698AFF" stroke-width="0.5"/>
</g>
<path fill-rule="evenodd" clip-rule="evenodd" d="M161.438 105C163.405 105 165 106.592 165 108.556C165 141.938 137.892 169 104.452 169L95.5479 169C62.1082 169 35 141.938 35 108.556C35 106.592 36.5946 105 38.5616 105C40.5287 105 42.1233 106.592 42.1233 108.556C42.1233 138.011 66.0423 161.889 95.5479 161.889L104.452 161.889C133.958 161.889 157.877 138.011 157.877 108.556C157.877 106.592 159.471 105 161.438 105Z" fill="#8B9DDD"/>
<rect x="51" y="154" width="134" height="98" rx="49" transform="rotate(-90 51 154)" fill="#698AFF"/>
<ellipse cx="100" cy="175" rx="3" ry="15" transform="rotate(90 100 175)" fill="#698AFF"/>
</svg>
