<svg width="194" height="194" viewBox="0 0 194 194" fill="none" xmlns="http://www.w3.org/2000/svg">
<rect width="194" height="194" fill="white"/>
<path d="M0 0H194V194H0L0 0Z" fill="#698AFF"/>
<path d="M78.0729 80.6083H106.41V65.5798H78.0729V80.6083ZM78.0729 105.233H105.504V91.3818H78.0729V105.233ZM66.0319 65.5798V128.953H82.8711V65.5798H66.0319ZM109.943 122.163C109.943 124.698 110.848 126.871 112.659 128.682C114.469 130.492 116.763 131.398 119.539 131.398C122.436 131.398 124.79 130.492 126.601 128.682C128.412 126.871 129.317 124.698 129.317 122.163C129.317 119.447 128.412 117.184 126.601 115.373C124.79 113.562 122.467 112.657 119.63 112.657C116.793 112.657 114.469 113.562 112.659 115.373C110.848 117.184 109.943 119.447 109.943 122.163Z" fill="white"/>
</svg>
